<svg width="495" height="358" viewBox="0 0 495 358" fill="none" xmlns="http://www.w3.org/2000/svg">
<g clip-path="url(#clip0_91_4)">
<path d="M494.751 44.5797V194.271C494.751 194.271 462.713 200.577 456.118 201.415C449.533 202.243 428.86 208.918 413.874 194.511C390.766 172.371 308.672 90.7153 308.672 90.7153C308.672 90.7153 294.514 76.8268 271.785 88.8296C250.922 99.8247 219.992 115.948 207.072 122.224C182.647 135.225 162.403 114.601 162.403 98.8869C162.403 86.7044 170.005 78.4331 180.881 72.3469C210.334 54.4873 272.424 19.6461 298.285 5.89726C314 -2.45385 325.324 -3.17222 346.905 15.0066C373.485 37.3561 397.141 57.73 397.141 57.73C397.141 57.73 404.854 64.1754 417.156 61.5813C447.368 55.1857 494.751 44.5797 494.751 44.5797V44.5797Z" fill="#D94693"/>
<path d="M392.183 220.561C400.624 229.082 400.624 242.871 392.183 251.321C383.702 259.762 369.883 259.762 361.462 251.321C361.382 251.242 325.803 214.605 322.949 217.468C320.146 220.292 356.114 257.877 356.264 258.326C363.328 266.826 363.158 279.438 355.186 287.41C347.214 295.382 333.865 295.661 325.354 287.998C325.274 287.998 277.891 243.778 274.948 246.692C272.044 249.595 310.198 283.578 310.198 283.578C310.837 284.247 312.573 285.903 312.982 286.292C321.433 294.783 321.443 308.562 312.982 317.023C304.501 325.464 290.702 325.464 282.261 317.023C281.543 316.284 243.07 276.255 240.655 278.68C238.231 281.134 268.423 312.723 268.732 313.022C277.193 321.523 277.153 335.301 268.732 343.762C260.251 352.223 246.442 352.223 237.991 343.762C233.671 339.412 226.757 331.7 226.567 331.46C226.547 331.42 226.507 331.42 226.488 331.42C228.962 316.005 224.891 300.021 213.417 288.238C207.57 282.271 200.317 277.911 192.295 275.577C190.319 267.046 186.109 259.164 179.783 252.638C174.166 246.872 167.212 242.651 159.529 240.276C157.464 232.434 153.473 225.27 147.706 219.334C142.108 213.567 135.144 209.366 127.452 206.992C125.406 199.12 121.395 191.986 115.648 186.019C96.5615 166.364 61.7901 166.573 40.8176 186.548C34.432 192.764 29.8225 200.287 26.959 208.428C14.3176 203.26 0.24939 199.189 0.24939 199.189V27.8969L49.5279 45.0581C75.0901 55.4047 93.0295 43.9207 93.0295 43.9207C93.0295 43.9207 156.256 2.50439 186.518 2.50439C216.779 2.50439 230.598 20.0148 230.598 20.0148C230.598 20.0148 185.241 44.1402 165.535 57.7694C151.527 66.5196 142.128 81.9247 142.128 99.6246C142.128 126.903 164.288 148.853 191.596 149.033C196.366 149.063 206.533 146.768 220.661 139.365C233.512 133.318 250.593 125.386 263.863 119.579C282.77 111.278 297.118 125.556 297.118 125.556C344.84 173.388 303.124 131.652 391.803 220.342C391.913 220.411 392.073 220.491 392.183 220.561V220.561Z" fill="#50398E"/>
<path d="M196.685 304.401C207.451 315.506 206.273 334.044 194.041 345.748C181.769 357.451 156.656 363.188 145.79 350.806C134.905 338.514 143.376 327.539 147.337 317.362C137.08 320.555 121.555 326.681 112.066 315.177C102.678 303.723 110.261 294.055 112.924 284.646C103.396 286.791 89.8068 294.294 80.0389 281.932C70.271 269.57 78.2031 260.79 80.8471 251.341C71.3286 253.507 58.8469 261.069 47.9814 248.648C37.0961 236.166 44.9084 214.964 57.1008 203.26C69.3631 191.577 88.0308 191.108 98.8164 202.173C105.711 209.257 107.177 219.314 104.533 228.763C114.062 226.558 124.049 228.443 130.914 235.437C137.798 242.541 139.275 252.609 136.611 262.067C146.139 259.882 156.147 261.728 162.991 268.732C170.614 276.574 171.941 287.999 167.97 298.215C178.187 295.013 189.252 296.779 196.685 304.401V304.401Z" fill="#50398E"/>
</g>
<defs>
<clipPath id="clip0_91_4">
<rect width="495" height="358" fill="white"/>
</clipPath>
</defs>
</svg>
